# 3ds Max Wavefront OBJ Exporter v0.97b - (c)2007 guruware
# File Created: 11.03.2013 21:20:42

mtllib bingoCristal.mtl

#
# object cristal
#

v  -18.7011 -5.6020 32.1347
v  -18.7011 9.8651 -32.8967
v  18.6425 9.8651 -32.8967
v  18.6425 -5.6020 32.1347
v  -18.7011 -4.9343 32.1532
v  18.6425 -4.9343 32.1532
v  18.6425 10.5327 -32.8782
v  -18.7011 10.5327 -32.8782
# 8 vertices

vn 0.0000 -0.9729 -0.2314
vn -0.0000 0.9729 0.2314
vn -0.0000 -0.0277 0.9996
vn 0.0000 -0.0277 0.9996
vn 1.0000 0.0000 -0.0000
vn 0.0000 0.0277 -0.9996
vn -1.0000 0.0000 -0.0000
# 7 vertex normals

vt 0.0000 0.0000 0.0000
vt 1.0000 0.0000 0.0000
vt 0.0000 1.0000 0.0000
vt 1.0000 1.0000 0.0000
vt 0.0000 0.0000 0.0000
vt 1.0000 0.0000 0.0000
vt 0.0000 1.0000 0.0000
vt 1.0000 1.0000 0.0000
vt 0.0000 0.0000 0.0000
vt 1.0000 0.0000 0.0000
vt 0.0000 1.0000 0.0000
vt 1.0000 1.0000 0.0000
# 12 texture coords

g cristal
usemtl cristal
s 2
f 1/10/1 2/12/1 3/11/1 
f 3/11/1 4/9/1 1/10/1 
s 4
f 5/9/2 6/10/2 7/12/2 
f 7/12/2 8/11/2 5/9/2 
s 8
f 1/5/3 4/6/4 6/8/3 
f 6/8/3 5/7/3 1/5/3 
s 16
f 4/1/5 3/2/5 7/4/5 
f 7/4/5 6/3/5 4/1/5 
s 32
f 3/5/6 2/6/6 8/8/6 
f 8/8/6 7/7/6 3/5/6 
s 64
f 2/1/7 1/2/7 5/4/7 
f 5/4/7 8/3/7 2/1/7 
# 12 faces

