# 3ds Max Wavefront OBJ Exporter v0.97b - (c)2007 guruware
# File Created: 25.02.2013 20:42:07

mtllib number10.mtl

#
# object Box011
#

v  -5.9005 -0.9063 -2.3752
v  -5.9005 -0.2586 -5.1061
v  -2.0605 -0.2586 -5.1061
v  -2.0605 -0.9063 -2.3752
v  -5.9005 -0.1031 -2.1847
v  -2.0605 -0.1031 -2.1847
v  -2.0605 0.5446 -4.9156
v  -5.9005 0.5446 -4.9156
# 8 vertices

vn 0.0000 -0.9730 -0.2308
vn 0.0000 0.9730 0.2308
vn 0.0000 -0.2308 0.9730
vn 1.0000 0.0000 -0.0000
vn 0.0000 0.2308 -0.9730
vn -1.0000 0.0000 -0.0000
# 6 vertex normals

vt 0.4115 0.5309 0.4915
vt 0.4115 0.5727 0.4914
vt 0.4691 0.5727 0.4914
vt 0.4691 0.5309 0.4915
vt 0.4115 0.5309 0.5038
vt 0.4691 0.5309 0.5038
vt 0.4691 0.5727 0.5037
vt 0.4115 0.5727 0.5037
# 8 texture coords

g Box011
usemtl bingoOn
s 2
f 1/1/1 2/2/1 3/3/1 
f 3/3/1 4/4/1 1/1/1 
s 4
f 5/5/2 6/6/2 7/7/2 
f 7/7/2 8/8/2 5/5/2 
s 8
f 1/1/3 4/4/3 6/6/3 
f 6/6/3 5/5/3 1/1/3 
s 16
f 4/4/4 3/3/4 7/7/4 
f 7/7/4 6/6/4 4/4/4 
s 32
f 3/3/5 2/2/5 8/8/5 
f 8/8/5 7/7/5 3/3/5 
s 64
f 2/2/6 1/1/6 5/5/6 
f 5/5/6 8/8/6 2/2/6 
# 12 faces

