# 3ds Max Wavefront OBJ Exporter v0.97b - (c)2007 guruware
# File Created: 25.02.2013 20:45:09

mtllib number25.mtl

#
# object Box026
#

v  5.0807 -7.3898 24.9512
v  6.9639 -6.9087 22.9264
v  4.1165 -6.3131 20.4196
v  2.2333 -6.7942 22.4444
v  5.0807 -6.5867 25.1420
v  2.2333 -5.9911 22.6353
v  4.1165 -5.5100 20.6105
v  6.9639 -6.1056 23.1172
# 8 vertices

vn 0.0000 -0.9729 -0.2312
vn -0.0000 0.9729 0.2312
vn -0.6710 -0.1714 0.7214
vn -0.7415 0.1551 -0.6528
vn 0.6710 0.1714 -0.7214
vn 0.7415 -0.1551 0.6528
# 6 vertex normals

vt 0.5762 0.1126 0.4918
vt 0.6044 0.1436 0.4918
vt 0.5617 0.1820 0.4917
vt 0.5335 0.1510 0.4918
vt 0.5762 0.1126 0.5041
vt 0.5335 0.1510 0.5040
vt 0.5617 0.1820 0.5040
vt 0.6044 0.1436 0.5041
# 8 texture coords

g Box026
usemtl bingoOn
s 2
f 3/3/1 2/2/1 1/1/1 
f 1/1/1 4/4/1 3/3/1 
s 4
f 7/7/2 6/6/2 5/5/2 
f 5/5/2 8/8/2 7/7/2 
s 8
f 6/6/3 4/4/3 1/1/3 
f 1/1/3 5/5/3 6/6/3 
s 16
f 7/7/4 3/3/4 4/4/4 
f 4/4/4 6/6/4 7/7/4 
s 32
f 8/8/5 2/2/5 3/3/5 
f 3/3/5 7/7/5 8/8/5 
s 64
f 5/5/6 1/1/6 2/2/6 
f 2/2/6 8/8/6 5/5/6 
# 12 faces

