# 3ds Max Wavefront OBJ Exporter v0.97b - (c)2007 guruware
# File Created: 26.02.2013 22:15:23

mtllib sensor18.mtl

#
# object Sensor019
#

v  -10.2472 -5.9340 15.3691
v  -10.2472 -5.2863 12.6381
v  -6.4072 -5.2863 12.6381
v  -6.4072 -5.9340 15.3691
v  -10.2472 -5.1308 15.5596
v  -6.4072 -5.1308 15.5596
v  -6.4072 -4.4831 12.8286
v  -10.2472 -4.4831 12.8286
# 8 vertices

vn 0.0000 -0.9730 -0.2308
vn 0.0000 0.9730 0.2308
vn 0.0000 -0.2308 0.9730
vn 1.0000 0.0000 -0.0000
vn 0.0000 0.2308 -0.9730
vn -1.0000 0.0000 -0.0000
# 6 vertex normals

vt 0.2179 0.3208 0.4200
vt 0.2179 0.3719 0.4392
vt 0.3466 0.3719 0.4392
vt 0.3466 0.3208 0.4200
vt 0.2179 0.3173 0.4438
vt 0.3466 0.3173 0.4438
vt 0.3466 0.3683 0.4631
vt 0.2179 0.3683 0.4631
# 8 texture coords

g Sensor019
usemtl wood
s 2
f 1/1/1 2/2/1 3/3/1 
f 3/3/1 4/4/1 1/1/1 
s 4
f 5/5/2 6/6/2 7/7/2 
f 7/7/2 8/8/2 5/5/2 
s 8
f 1/1/3 4/4/3 6/6/3 
f 6/6/3 5/5/3 1/1/3 
s 16
f 4/4/4 3/3/4 7/7/4 
f 7/7/4 6/6/4 4/4/4 
s 32
f 3/3/5 2/2/5 8/8/5 
f 8/8/5 7/7/5 3/3/5 
s 64
f 2/2/6 1/1/6 5/5/6 
f 5/5/6 8/8/6 2/2/6 
# 12 faces

