# 3ds Max Wavefront OBJ Exporter v0.97b - (c)2007 guruware
# File Created: 26.02.2013 21:53:14

mtllib sensor1.mtl

#
# object Sensor001
#

v  -16.7349 1.3780 -15.4611
v  -16.7349 2.0257 -18.1921
v  -12.8948 2.0257 -18.1921
v  -12.8948 1.3780 -15.4611
v  -16.7349 2.1812 -15.2706
v  -12.8948 2.1812 -15.2706
v  -12.8948 2.8289 -18.0016
v  -16.7349 2.8289 -18.0016
# 8 vertices

vn 0.0000 -0.9730 -0.2308
vn 0.0000 0.9730 0.2308
vn 0.0000 -0.2308 0.9730
vn 1.0000 0.0000 -0.0000
vn 0.0000 0.2308 -0.9730
vn -1.0000 0.0000 -0.0000
# 6 vertex normals

vt 0.0005 0.8975 0.6369
vt 0.0005 0.9485 0.6562
vt 0.1292 0.9485 0.6562
vt 0.1292 0.8975 0.6369
vt 0.0005 0.8939 0.6608
vt 0.1292 0.8939 0.6608
vt 0.1292 0.9450 0.6800
vt 0.0005 0.9450 0.6800
# 8 texture coords

g Sensor001
usemtl wood
s 2
f 1/1/1 2/2/1 3/3/1 
f 3/3/1 4/4/1 1/1/1 
s 4
f 5/5/2 6/6/2 7/7/2 
f 7/7/2 8/8/2 5/5/2 
s 8
f 1/1/3 4/4/3 6/6/3 
f 6/6/3 5/5/3 1/1/3 
s 16
f 4/4/4 3/3/4 7/7/4 
f 7/7/4 6/6/4 4/4/4 
s 32
f 3/3/5 2/2/5 8/8/5 
f 8/8/5 7/7/5 3/3/5 
s 64
f 2/2/6 1/1/6 5/5/6 
f 5/5/6 8/8/6 2/2/6 
# 12 faces

