# 3ds Max Wavefront OBJ Exporter v0.97b - (c)2007 guruware
# File Created: 25.02.2013 21:25:50

mtllib sensorReturn.mtl

#
# object SensorReturn
#

v  -3.8451 -9.3047 29.5812
v  -3.8451 -8.6570 26.8502
v  -0.0050 -8.6570 26.8502
v  -0.0050 -9.3047 29.5812
v  -3.8451 -8.5015 29.7717
v  -0.0050 -8.5015 29.7717
v  -0.0050 -7.8538 27.0407
v  -3.8451 -7.8538 27.0407
# 8 vertices

vn 0.0000 -0.9730 -0.2308
vn 0.0000 0.9730 0.2308
vn 0.0000 -0.2308 0.9730
vn 1.0000 0.0000 -0.0000
vn 0.0000 0.2308 -0.9730
vn -1.0000 0.0000 -0.0000
# 6 vertex normals

vt 0.4324 0.0550 0.3200
vt 0.4324 0.1061 0.3392
vt 0.5611 0.1061 0.3392
vt 0.5611 0.0550 0.3200
vt 0.4324 0.0515 0.3438
vt 0.5611 0.0515 0.3438
vt 0.5611 0.1025 0.3631
vt 0.4324 0.1025 0.3631
# 8 texture coords

g SensorReturn
usemtl wood
s 2
f 1/1/1 2/2/1 3/3/1 
f 3/3/1 4/4/1 1/1/1 
s 4
f 5/5/2 6/6/2 7/7/2 
f 7/7/2 8/8/2 5/5/2 
s 8
f 1/1/3 4/4/3 6/6/3 
f 6/6/3 5/5/3 1/1/3 
s 16
f 4/4/4 3/3/4 7/7/4 
f 7/7/4 6/6/4 4/4/4 
s 32
f 3/3/5 2/2/5 8/8/5 
f 8/8/5 7/7/5 3/3/5 
s 64
f 2/2/6 1/1/6 5/5/6 
f 5/5/6 8/8/6 2/2/6 
# 12 faces

