# 3ds Max Wavefront OBJ Exporter v0.97b - (c)2007 guruware
# File Created: 26.02.2013 21:55:58

mtllib sensor15.mtl

#
# object Sensor015
#

v  -8.0799 -3.4695 4.9776
v  -8.0799 -2.8218 2.2466
v  -4.2398 -2.8218 2.2466
v  -4.2398 -3.4695 4.9776
v  -8.0799 -2.6663 5.1681
v  -4.2398 -2.6663 5.1681
v  -4.2398 -2.0186 2.4371
v  -8.0799 -2.0186 2.4371
# 8 vertices

vn 0.0000 -0.9730 -0.2308
vn 0.0000 0.9730 0.2308
vn 0.0000 -0.2308 0.9730
vn 1.0000 0.0000 -0.0000
vn 0.0000 0.2308 -0.9730
vn -1.0000 0.0000 -0.0000
# 6 vertex normals

vt 0.2905 0.5152 0.4931
vt 0.2905 0.5663 0.5123
vt 0.4192 0.5663 0.5123
vt 0.4192 0.5152 0.4931
vt 0.2905 0.5116 0.5170
vt 0.4192 0.5116 0.5170
vt 0.4192 0.5627 0.5362
vt 0.2905 0.5627 0.5362
# 8 texture coords

g Sensor015
usemtl wood
s 2
f 1/1/1 2/2/1 3/3/1 
f 3/3/1 4/4/1 1/1/1 
s 4
f 5/5/2 6/6/2 7/7/2 
f 7/7/2 8/8/2 5/5/2 
s 8
f 1/1/3 4/4/3 6/6/3 
f 6/6/3 5/5/3 1/1/3 
s 16
f 4/4/4 3/3/4 7/7/4 
f 7/7/4 6/6/4 4/4/4 
s 32
f 3/3/5 2/2/5 8/8/5 
f 8/8/5 7/7/5 3/3/5 
s 64
f 2/2/6 1/1/6 5/5/6 
f 5/5/6 8/8/6 2/2/6 
# 12 faces

