# 3ds Max Wavefront OBJ Exporter v0.97b - (c)2007 guruware
# File Created: 26.02.2013 21:54:57

mtllib sensor9.mtl

#
# object Sensor009
#

v  -10.2305 -1.0282 -5.3157
v  -10.2305 -0.3805 -8.0467
v  -6.3904 -0.3805 -8.0467
v  -6.3904 -1.0282 -5.3157
v  -10.2305 -0.2250 -5.1252
v  -6.3904 -0.2250 -5.1252
v  -6.3904 0.4227 -7.8562
v  -10.2305 0.4227 -7.8562
# 8 vertices

vn 0.0000 -0.9730 -0.2308
vn 0.0000 0.9730 0.2308
vn 0.0000 -0.2308 0.9730
vn 1.0000 0.0000 -0.0000
vn 0.0000 0.2308 -0.9730
vn -1.0000 0.0000 -0.0000
# 6 vertex normals

vt 0.2185 0.7077 0.5656
vt 0.2185 0.7588 0.5848
vt 0.3471 0.7588 0.5848
vt 0.3471 0.7077 0.5656
vt 0.2185 0.7041 0.5894
vt 0.3471 0.7041 0.5894
vt 0.3471 0.7552 0.6086
vt 0.2185 0.7552 0.6086
# 8 texture coords

g Sensor009
usemtl wood
s 2
f 1/1/1 2/2/1 3/3/1 
f 3/3/1 4/4/1 1/1/1 
s 4
f 5/5/2 6/6/2 7/7/2 
f 7/7/2 8/8/2 5/5/2 
s 8
f 1/1/3 4/4/3 6/6/3 
f 6/6/3 5/5/3 1/1/3 
s 16
f 4/4/4 3/3/4 7/7/4 
f 7/7/4 6/6/4 4/4/4 
s 32
f 3/3/5 2/2/5 8/8/5 
f 8/8/5 7/7/5 3/3/5 
s 64
f 2/2/6 1/1/6 5/5/6 
f 5/5/6 8/8/6 2/2/6 
# 12 faces

