# 3ds Max Wavefront OBJ Exporter v0.97b - (c)2007 guruware
# File Created: 07.03.2013 23:34:43

mtllib tirador.mtl

#
# object Cylinder001
#

v  0.0000 0.3254 0.0820
v  0.2023 0.1829 0.0461
v  0.2500 0.3254 0.0820
v  0.0773 0.0948 0.0239
v  -0.0773 0.0948 0.0239
v  -0.2023 0.1829 0.0461
v  -0.2500 0.3254 0.0820
v  -0.2023 0.4678 0.1179
v  -0.0773 0.5559 0.1401
v  0.0773 0.5559 0.1401
v  0.2023 0.4678 0.1179
v  0.4045 0.0404 0.0102
v  0.5000 0.3254 0.0820
v  0.1545 -0.1358 -0.0342
v  -0.1545 -0.1358 -0.0342
v  -0.4045 0.0404 0.0102
v  -0.5000 0.3254 0.0820
v  -0.4045 0.6103 0.1538
v  -0.1545 0.7865 0.1982
v  0.1545 0.7865 0.1982
v  0.4045 0.6103 0.1538
v  0.4045 0.1451 -0.4054
v  0.5000 0.4301 -0.3336
v  0.1545 -0.0310 -0.4498
v  -0.1545 -0.0310 -0.4498
v  -0.4045 0.1451 -0.4054
v  -0.5000 0.4301 -0.3336
v  -0.4045 0.7151 -0.2617
v  -0.1545 0.8912 -0.2173
v  0.1545 0.8912 -0.2173
v  0.4045 0.7151 -0.2617
v  0.4045 0.2499 -0.8210
v  0.5000 0.5349 -0.7491
v  0.1545 0.0737 -0.8654
v  -0.1545 0.0737 -0.8654
v  -0.4045 0.2499 -0.8210
v  -0.5000 0.5349 -0.7491
v  -0.4045 0.8198 -0.6773
v  -0.1545 0.9960 -0.6329
v  0.1545 0.9960 -0.6329
v  0.4045 0.8198 -0.6773
v  0.4045 0.3546 -1.2365
v  0.5000 0.6396 -1.1647
v  0.1545 0.1785 -1.2809
v  -0.1545 0.1785 -1.2809
v  -0.4045 0.3546 -1.2365
v  -0.5000 0.6396 -1.1647
v  -0.4045 0.9246 -1.0929
v  -0.1545 1.1007 -1.0485
v  0.1545 1.1007 -1.0485
v  0.4045 0.9246 -1.0929
v  0.4045 0.4594 -1.6521
v  0.5000 0.7443 -1.5803
v  0.1545 0.2832 -1.6965
v  -0.1545 0.2832 -1.6965
v  -0.4045 0.4594 -1.6521
v  -0.5000 0.7443 -1.5803
v  -0.4045 1.0293 -1.5085
v  -0.1545 1.2055 -1.4641
v  0.1545 1.2055 -1.4641
v  0.4045 1.0293 -1.5085
v  0.4045 0.5641 -2.0677
v  0.5000 0.8491 -1.9959
v  0.1545 0.3880 -2.1121
v  -0.1545 0.3880 -2.1121
v  -0.4045 0.5641 -2.0677
v  -0.5000 0.8491 -1.9959
v  -0.4045 1.1341 -1.9240
v  -0.1545 1.3102 -1.8796
v  0.1545 1.3102 -1.8796
v  0.4045 1.1341 -1.9240
v  0.4045 0.6689 -2.4833
v  0.5000 0.9538 -2.4114
v  0.1545 0.4927 -2.5277
v  -0.1545 0.4927 -2.5277
v  -0.4045 0.6689 -2.4833
v  -0.5000 0.9538 -2.4114
v  -0.4045 1.2388 -2.3396
v  -0.1545 1.4149 -2.2952
v  0.1545 1.4149 -2.2952
v  0.4045 1.2388 -2.3396
v  0.4045 0.7736 -2.8988
v  0.5000 1.0586 -2.8270
v  0.1545 0.5975 -2.9432
v  -0.1545 0.5975 -2.9432
v  -0.4045 0.7736 -2.8988
v  -0.5000 1.0586 -2.8270
v  -0.4045 1.3436 -2.7552
v  -0.1545 1.5197 -2.7108
v  0.1545 1.5197 -2.7108
v  0.4045 1.3436 -2.7552
v  0.2023 0.9161 -2.8629
v  0.2500 1.0586 -2.8270
v  0.0773 0.8280 -2.8851
v  -0.0773 0.8280 -2.8851
v  -0.2023 0.9161 -2.8629
v  -0.2500 1.0586 -2.8270
v  -0.2023 1.2011 -2.7911
v  -0.0773 1.2891 -2.7689
v  0.0773 1.2891 -2.7689
v  0.2023 1.2011 -2.7911
v  0.0000 1.0586 -2.8270
# 102 vertices

vn 0.0000 -0.2444 0.9697
vn 1.0000 -0.0000 -0.0000
vn 0.8090 -0.5700 -0.1437
vn 0.3090 -0.9222 -0.2324
vn -0.3090 -0.9222 -0.2324
vn -0.8090 -0.5700 -0.1437
vn -1.0000 0.0000 0.0000
vn -0.8090 0.5700 0.1437
vn -0.3090 0.9222 0.2324
vn 0.3090 0.9222 0.2324
vn 0.8090 0.5700 0.1437
vn 0.0000 0.2444 -0.9697
# 12 vertex normals

vt 0.5000 0.2555 0.0000
vt 0.8462 0.2555 0.5165
vt 0.7500 0.2555 0.5252
vt 0.9476 0.2555 0.5020
vt 0.0524 0.2555 0.5020
vt -0.0524 0.2555 0.5020
vt 0.1538 0.2555 0.5165
vt 0.2500 0.2555 0.5252
vt 0.3462 0.2555 0.5165
vt 0.4476 0.2555 0.5020
vt 0.5524 0.2555 0.5020
vt 0.6538 0.2555 0.5165
vt 0.8462 0.2555 1.0329
vt 0.7500 0.2555 1.0504
vt 0.9476 0.2555 1.0040
vt 0.0524 0.2555 1.0040
vt -0.0524 0.2555 1.0040
vt 0.1538 0.2555 1.0329
vt 0.2500 0.2555 1.0504
vt 0.3462 0.2555 1.0329
vt 0.4476 0.2555 1.0040
vt 0.5524 0.2555 1.0040
vt 0.6538 0.2555 1.0329
vt 0.8462 0.3254 1.0329
vt 0.7500 0.3254 1.0504
vt 0.9476 0.3254 1.0040
vt 0.0524 0.3254 1.0040
vt -0.0524 0.3254 1.0040
vt 0.1538 0.3254 1.0329
vt 0.2500 0.3254 1.0504
vt 0.3462 0.3254 1.0329
vt 0.4476 0.3254 1.0040
vt 0.5524 0.3254 1.0040
vt 0.6538 0.3254 1.0329
vt 0.8462 0.3952 1.0329
vt 0.7500 0.3952 1.0504
vt 0.9476 0.3952 1.0040
vt 0.0524 0.3952 1.0040
vt -0.0524 0.3952 1.0040
vt 0.1538 0.3952 1.0329
vt 0.2500 0.3952 1.0504
vt 0.3462 0.3952 1.0329
vt 0.4476 0.3952 1.0040
vt 0.5524 0.3952 1.0040
vt 0.6538 0.3952 1.0329
vt 0.8462 0.4651 1.0329
vt 0.7500 0.4651 1.0504
vt 0.9476 0.4651 1.0040
vt 0.0524 0.4651 1.0040
vt -0.0524 0.4651 1.0040
vt 0.1538 0.4651 1.0329
vt 0.2500 0.4651 1.0504
vt 0.3462 0.4651 1.0329
vt 0.4476 0.4651 1.0040
vt 0.5524 0.4651 1.0040
vt 0.6538 0.4651 1.0329
vt 0.8462 0.5349 1.0329
vt 0.7500 0.5349 1.0504
vt 0.9476 0.5349 1.0040
vt 0.0524 0.5349 1.0040
vt -0.0524 0.5349 1.0040
vt 0.1538 0.5349 1.0329
vt 0.2500 0.5349 1.0504
vt 0.3462 0.5349 1.0329
vt 0.4476 0.5349 1.0040
vt 0.5524 0.5349 1.0040
vt 0.6538 0.5349 1.0329
vt 0.8462 0.6048 1.0329
vt 0.7500 0.6048 1.0504
vt 0.9476 0.6048 1.0040
vt 0.0524 0.6048 1.0040
vt -0.0524 0.6048 1.0040
vt 0.1538 0.6048 1.0329
vt 0.2500 0.6048 1.0504
vt 0.3462 0.6048 1.0329
vt 0.4476 0.6048 1.0040
vt 0.5524 0.6048 1.0040
vt 0.6538 0.6048 1.0329
vt 0.8462 0.6746 1.0329
vt 0.7500 0.6746 1.0504
vt 0.9476 0.6746 1.0040
vt 0.0524 0.6746 1.0040
vt -0.0524 0.6746 1.0040
vt 0.1538 0.6746 1.0329
vt 0.2500 0.6746 1.0504
vt 0.3462 0.6746 1.0329
vt 0.4476 0.6746 1.0040
vt 0.5524 0.6746 1.0040
vt 0.6538 0.6746 1.0329
vt 0.8462 0.7445 1.0329
vt 0.7500 0.7445 1.0504
vt 0.9476 0.7445 1.0040
vt 0.0524 0.7445 1.0040
vt -0.0524 0.7445 1.0040
vt 0.1538 0.7445 1.0329
vt 0.2500 0.7445 1.0504
vt 0.3462 0.7445 1.0329
vt 0.4476 0.7445 1.0040
vt 0.5524 0.7445 1.0040
vt 0.6538 0.7445 1.0329
vt 0.8462 0.7445 0.5165
vt 0.7500 0.7445 0.5252
vt 0.9476 0.7445 0.5020
vt 0.0524 0.7445 0.5020
vt -0.0524 0.7445 0.5020
vt 0.1538 0.7445 0.5165
vt 0.2500 0.7445 0.5252
vt 0.3462 0.7445 0.5165
vt 0.4476 0.7445 0.5020
vt 0.5524 0.7445 0.5020
vt 0.6538 0.7445 0.5165
vt 0.5000 0.7445 0.0000
# 112 texture coords

g Cylinder001
usemtl wire_027177148
s 1
f 1/1/1 2/2/1 3/3/1 
f 1/1/1 4/4/1 2/2/1 
f 1/1/1 5/5/1 4/6/1 
f 1/1/1 6/7/1 5/5/1 
f 1/1/1 7/8/1 6/7/1 
f 1/1/1 8/9/1 7/8/1 
f 1/1/1 9/10/1 8/9/1 
f 1/1/1 10/11/1 9/10/1 
f 1/1/1 11/12/1 10/11/1 
f 1/1/1 3/3/1 11/12/1 
f 3/3/1 12/13/1 13/14/1 
f 3/3/1 2/2/1 12/13/1 
f 2/2/1 14/15/1 12/13/1 
f 2/2/1 4/4/1 14/15/1 
f 4/6/1 15/16/1 14/17/1 
f 4/6/1 5/5/1 15/16/1 
f 5/5/1 16/18/1 15/16/1 
f 5/5/1 6/7/1 16/18/1 
f 6/7/1 17/19/1 16/18/1 
f 6/7/1 7/8/1 17/19/1 
f 7/8/1 18/20/1 17/19/1 
f 7/8/1 8/9/1 18/20/1 
f 8/9/1 19/21/1 18/20/1 
f 8/9/1 9/10/1 19/21/1 
f 9/10/1 20/22/1 19/21/1 
f 9/10/1 10/11/1 20/22/1 
f 10/11/1 21/23/1 20/22/1 
f 10/11/1 11/12/1 21/23/1 
f 11/12/1 13/14/1 21/23/1 
f 11/12/1 3/3/1 13/14/1 
s 8
f 13/14/2 22/24/3 23/25/2 
f 13/14/2 12/13/3 22/24/3 
f 12/13/3 24/26/4 22/24/3 
f 12/13/3 14/15/4 24/26/4 
f 14/17/4 25/27/5 24/28/4 
f 14/17/4 15/16/5 25/27/5 
f 15/16/5 26/29/6 25/27/5 
f 15/16/5 16/18/6 26/29/6 
f 16/18/6 27/30/7 26/29/6 
f 16/18/6 17/19/7 27/30/7 
f 17/19/7 28/31/8 27/30/7 
f 17/19/7 18/20/8 28/31/8 
f 18/20/8 29/32/9 28/31/8 
f 18/20/8 19/21/9 29/32/9 
f 19/21/9 30/33/10 29/32/9 
f 19/21/9 20/22/10 30/33/10 
f 20/22/10 31/34/11 30/33/10 
f 20/22/10 21/23/11 31/34/11 
f 21/23/11 23/25/2 31/34/11 
f 21/23/11 13/14/2 23/25/2 
f 23/25/2 32/35/3 33/36/2 
f 23/25/2 22/24/3 32/35/3 
f 22/24/3 34/37/4 32/35/3 
f 22/24/3 24/26/4 34/37/4 
f 24/28/4 35/38/5 34/39/4 
f 24/28/4 25/27/5 35/38/5 
f 25/27/5 36/40/6 35/38/5 
f 25/27/5 26/29/6 36/40/6 
f 26/29/6 37/41/7 36/40/6 
f 26/29/6 27/30/7 37/41/7 
f 27/30/7 38/42/8 37/41/7 
f 27/30/7 28/31/8 38/42/8 
f 28/31/8 39/43/9 38/42/8 
f 28/31/8 29/32/9 39/43/9 
f 29/32/9 40/44/10 39/43/9 
f 29/32/9 30/33/10 40/44/10 
f 30/33/10 41/45/11 40/44/10 
f 30/33/10 31/34/11 41/45/11 
f 31/34/11 33/36/2 41/45/11 
f 31/34/11 23/25/2 33/36/2 
f 33/36/2 42/46/3 43/47/2 
f 33/36/2 32/35/3 42/46/3 
f 32/35/3 44/48/4 42/46/3 
f 32/35/3 34/37/4 44/48/4 
f 34/39/4 45/49/5 44/50/4 
f 34/39/4 35/38/5 45/49/5 
f 35/38/5 46/51/6 45/49/5 
f 35/38/5 36/40/6 46/51/6 
f 36/40/6 47/52/7 46/51/6 
f 36/40/6 37/41/7 47/52/7 
f 37/41/7 48/53/8 47/52/7 
f 37/41/7 38/42/8 48/53/8 
f 38/42/8 49/54/9 48/53/8 
f 38/42/8 39/43/9 49/54/9 
f 39/43/9 50/55/10 49/54/9 
f 39/43/9 40/44/10 50/55/10 
f 40/44/10 51/56/11 50/55/10 
f 40/44/10 41/45/11 51/56/11 
f 41/45/11 43/47/2 51/56/11 
f 41/45/11 33/36/2 43/47/2 
f 43/47/2 52/57/3 53/58/2 
f 43/47/2 42/46/3 52/57/3 
f 42/46/3 54/59/4 52/57/3 
f 42/46/3 44/48/4 54/59/4 
f 44/50/4 55/60/5 54/61/4 
f 44/50/4 45/49/5 55/60/5 
f 45/49/5 56/62/6 55/60/5 
f 45/49/5 46/51/6 56/62/6 
f 46/51/6 57/63/7 56/62/6 
f 46/51/6 47/52/7 57/63/7 
f 47/52/7 58/64/8 57/63/7 
f 47/52/7 48/53/8 58/64/8 
f 48/53/8 59/65/9 58/64/8 
f 48/53/8 49/54/9 59/65/9 
f 49/54/9 60/66/10 59/65/9 
f 49/54/9 50/55/10 60/66/10 
f 50/55/10 61/67/11 60/66/10 
f 50/55/10 51/56/11 61/67/11 
f 51/56/11 53/58/2 61/67/11 
f 51/56/11 43/47/2 53/58/2 
f 53/58/2 62/68/3 63/69/2 
f 53/58/2 52/57/3 62/68/3 
f 52/57/3 64/70/4 62/68/3 
f 52/57/3 54/59/4 64/70/4 
f 54/61/4 65/71/5 64/72/4 
f 54/61/4 55/60/5 65/71/5 
f 55/60/5 66/73/6 65/71/5 
f 55/60/5 56/62/6 66/73/6 
f 56/62/6 67/74/7 66/73/6 
f 56/62/6 57/63/7 67/74/7 
f 57/63/7 68/75/8 67/74/7 
f 57/63/7 58/64/8 68/75/8 
f 58/64/8 69/76/9 68/75/8 
f 58/64/8 59/65/9 69/76/9 
f 59/65/9 70/77/10 69/76/9 
f 59/65/9 60/66/10 70/77/10 
f 60/66/10 71/78/11 70/77/10 
f 60/66/10 61/67/11 71/78/11 
f 61/67/11 63/69/2 71/78/11 
f 61/67/11 53/58/2 63/69/2 
f 63/69/2 72/79/3 73/80/2 
f 63/69/2 62/68/3 72/79/3 
f 62/68/3 74/81/4 72/79/3 
f 62/68/3 64/70/4 74/81/4 
f 64/72/4 75/82/5 74/83/4 
f 64/72/4 65/71/5 75/82/5 
f 65/71/5 76/84/6 75/82/5 
f 65/71/5 66/73/6 76/84/6 
f 66/73/6 77/85/7 76/84/6 
f 66/73/6 67/74/7 77/85/7 
f 67/74/7 78/86/8 77/85/7 
f 67/74/7 68/75/8 78/86/8 
f 68/75/8 79/87/9 78/86/8 
f 68/75/8 69/76/9 79/87/9 
f 69/76/9 80/88/10 79/87/9 
f 69/76/9 70/77/10 80/88/10 
f 70/77/10 81/89/11 80/88/10 
f 70/77/10 71/78/11 81/89/11 
f 71/78/11 73/80/2 81/89/11 
f 71/78/11 63/69/2 73/80/2 
f 73/80/2 82/90/3 83/91/2 
f 73/80/2 72/79/3 82/90/3 
f 72/79/3 84/92/4 82/90/3 
f 72/79/3 74/81/4 84/92/4 
f 74/83/4 85/93/5 84/94/4 
f 74/83/4 75/82/5 85/93/5 
f 75/82/5 86/95/6 85/93/5 
f 75/82/5 76/84/6 86/95/6 
f 76/84/6 87/96/7 86/95/6 
f 76/84/6 77/85/7 87/96/7 
f 77/85/7 88/97/8 87/96/7 
f 77/85/7 78/86/8 88/97/8 
f 78/86/8 89/98/9 88/97/8 
f 78/86/8 79/87/9 89/98/9 
f 79/87/9 90/99/10 89/98/9 
f 79/87/9 80/88/10 90/99/10 
f 80/88/10 91/100/11 90/99/10 
f 80/88/10 81/89/11 91/100/11 
f 81/89/11 83/91/2 91/100/11 
f 81/89/11 73/80/2 83/91/2 
s 1
f 83/91/12 92/101/12 93/102/12 
f 83/91/12 82/90/12 92/101/12 
f 82/90/12 94/103/12 92/101/12 
f 82/90/12 84/92/12 94/103/12 
f 84/94/12 95/104/12 94/105/12 
f 84/94/12 85/93/12 95/104/12 
f 85/93/12 96/106/12 95/104/12 
f 85/93/12 86/95/12 96/106/12 
f 86/95/12 97/107/12 96/106/12 
f 86/95/12 87/96/12 97/107/12 
f 87/96/12 98/108/12 97/107/12 
f 87/96/12 88/97/12 98/108/12 
f 88/97/12 99/109/12 98/108/12 
f 88/97/12 89/98/12 99/109/12 
f 89/98/12 100/110/12 99/109/12 
f 89/98/12 90/99/12 100/110/12 
f 90/99/12 101/111/12 100/110/12 
f 90/99/12 91/100/12 101/111/12 
f 91/100/12 93/102/12 101/111/12 
f 91/100/12 83/91/12 93/102/12 
f 102/112/12 93/102/12 92/101/12 
f 102/112/12 92/101/12 94/103/12 
f 102/112/12 94/105/12 95/104/12 
f 102/112/12 95/104/12 96/106/12 
f 102/112/12 96/106/12 97/107/12 
f 102/112/12 97/107/12 98/108/12 
f 102/112/12 98/108/12 99/109/12 
f 102/112/12 99/109/12 100/110/12 
f 102/112/12 100/110/12 101/111/12 
f 102/112/12 101/111/12 93/102/12 
# 200 faces

