# 3ds Max Wavefront OBJ Exporter v0.97b - (c)2007 guruware
# File Created: 24.04.2012 22:07:05

mtllib cornellBoxClose.mtl

#
# object Cornell_Box_01
#

v  1.7034 2.6467 -2.5603
v  0.4642 2.6467 -2.5603
v  0.4642 2.6467 -1.1089
v  1.7034 2.6467 -1.1089
v  1.7034 0.0297 -2.5603
v  0.4642 0.0297 -2.5603
v  0.4642 0.0297 -1.1089
v  1.7034 0.0297 -1.1089
v  -2.1599 4.3198 9.0706
v  0.0000 4.3198 -1.1526
v  2.1596 4.3198 9.0706
v  -2.1599 4.3198 -3.9945
v  -2.1599 -0.0000 9.0706
v  -2.1599 -0.0000 -3.9945
v  2.1599 -0.0000 -3.9945
v  2.1596 -0.0000 9.0706
v  2.1599 4.3198 -3.9945
v  0.0000 4.3198 -2.5166
v  -0.1079 1.1428 -2.3064
v  -1.2059 1.1428 -2.4607
v  -1.3602 1.1428 -1.3628
v  -0.2622 1.1428 -1.2084
v  -0.1079 0.0340 -2.3064
v  -1.2059 0.0340 -2.4607
v  -0.2622 0.0340 -1.2084
v  -1.3602 0.0340 -1.3628
# 26 vertices

vn 0.0000 1.0000 -0.0000
vn 0.0000 0.0000 -1.0000
vn -1.0000 0.0000 -0.0000
vn 0.0000 0.0000 1.0000
vn 0.0000 -1.0000 -0.0000
vn 1.0000 0.0000 -0.0000
vn 0.1392 0.0000 -0.9903
vn 0.9903 0.0000 0.1392
vn -0.1392 0.0000 0.9903
vn -0.9903 0.0000 -0.1392
# 10 vertex normals

vt 0.1061 0.1102 0.6126
vt 0.3926 0.1102 0.6126
vt 0.3926 0.2211 0.6126
vt 0.1061 0.2211 0.6126
vt 0.3926 0.6126 0.1102
vt 0.1061 0.6126 0.1102
vt 0.1061 0.0074 0.1102
vt 0.3926 0.0074 0.1102
vt 0.3874 0.2211 0.6074
vt 0.3874 0.1102 0.6074
vt 0.9926 0.1102 0.6074
vt 0.9926 0.2211 0.6074
vt 0.8939 0.6126 0.2211
vt 0.6074 0.6126 0.2211
vt 0.6074 0.0074 0.2211
vt 0.8939 0.0074 0.2211
vt 0.0005 0.9995 0.9995
vt 0.5000 0.2178 0.9995
vt 0.9994 0.9995 0.9995
vt 0.0005 0.0005 0.9995
vt 0.0005 0.9995 0.0005
vt 0.0005 0.0005 0.0005
vt 0.9995 0.0005 0.0005
vt 0.9995 0.9995 0.0005
vt 0.0006 0.9995 0.0005
vt 0.9995 0.0005 0.9995
vt 0.9995 0.9995 0.9994
vt 0.0005 0.9995 0.9994
vt 0.5000 0.1135 0.9995
vt 0.5250 0.1296 0.2648
vt 0.7789 0.1178 0.2648
vt 0.8145 0.2017 0.2648
vt 0.5606 0.2135 0.2648
vt 0.7789 0.2648 0.1178
vt 0.5250 0.2648 0.1296
vt 0.5250 0.0084 0.1296
vt 0.7789 0.0084 0.1178
vt 0.2648 0.1296 0.4750
vt 0.2648 0.2135 0.4394
vt 0.0084 0.2135 0.4394
vt 0.0084 0.1296 0.4750
vt 0.4394 0.2648 0.2135
vt 0.1855 0.2648 0.2017
vt 0.1855 0.0084 0.2017
vt 0.4394 0.0084 0.2135
vt 0.7352 0.2017 0.1855
vt 0.7352 0.1178 0.2211
vt 0.9916 0.1178 0.2211
vt 0.9916 0.2017 0.1855
vt 0.4394 0.2135 0.0084
vt 0.1855 0.2017 0.0084
vt 0.2211 0.1178 0.0084
vt 0.4750 0.1296 0.0084
vt 0.0074 0.1102 0.8939
vt 0.6126 0.1102 0.8939
vt 0.6126 0.2211 0.8939
vt 0.0074 0.2211 0.8939
vt 0.0006 0.9995 0.9995
vt 0.0006 0.0005 0.9995
vt 0.9995 0.9995 0.9995
# 60 texture coords

g Cornell_Box_01
usemtl FrontColor
s 1
f 1/1/1 2/2/1 3/3/1 
f 1/1/1 3/3/1 4/4/1 
s 2
f 2/5/2 1/6/2 5/7/2 
f 2/5/2 5/7/2 6/8/2 
s 4
f 3/9/3 2/10/3 6/11/3 
f 3/9/3 6/11/3 7/12/3 
s 2
f 4/13/4 3/14/4 7/15/4 
f 4/13/4 7/15/4 8/16/4 
s 1
f 9/17/5 10/18/5 11/19/5 
f 10/18/5 9/17/5 12/20/5 
usemtl red
s 2
f 13/21/6 14/22/6 12/23/6 
f 13/21/6 12/23/6 9/24/6 
usemtl FrontColor
s 1
f 15/22/1 14/23/1 13/24/1 
f 15/22/1 13/24/1 16/25/1 
usemtl Material__0
s 4
f 14/22/4 15/23/4 17/24/4 
f 14/22/4 17/24/4 12/21/4 
usemtl green
s 2
f 15/26/3 16/27/3 11/28/3 
f 15/26/3 11/28/3 17/20/3 
usemtl FrontColor
s 1
f 11/19/5 10/18/5 17/26/5 
f 17/26/5 10/18/5 18/29/5 
f 17/26/5 18/29/5 12/20/5 
f 10/18/5 12/20/5 18/29/5 
f 19/30/1 20/31/1 21/32/1 
f 19/30/1 21/32/1 22/33/1 
s 2
f 20/34/7 19/35/7 23/36/7 
f 20/34/7 23/36/7 24/37/7 
s 4
f 19/38/8 22/39/8 25/40/8 
f 19/38/8 25/40/8 23/41/8 
s 2
f 22/42/9 21/43/9 26/44/9 
f 22/42/9 26/44/9 25/45/9 
s 4
f 21/46/10 20/47/10 24/48/10 
f 21/46/10 24/48/10 26/49/10 
s 1
f 25/50/5 26/51/5 24/52/5 
f 25/50/5 24/52/5 23/53/5 
s 4
f 5/54/6 1/55/6 4/56/6 
f 5/54/6 4/56/6 8/57/6 
usemtl red
f 11/58/2 16/59/2 13/26/2 
f 13/26/2 9/60/2 11/58/2 
# 38 faces

