# 3ds Max Wavefront OBJ Exporter v0.97b - (c)2007 guruware
# File Created: 25.12.2013 03:06:26

mtllib piscina.mtl

#
# object Box002
#

v  -7.2000 0.3000 -5.4000
v  7.2000 0.3000 -5.4000
v  7.2000 0.3000 -5.1278
v  -7.2000 0.3000 -5.1278
v  -7.2000 5.8900 -5.4000
v  -7.2000 5.8900 -5.1278
v  7.2000 5.8900 -5.1278
v  7.2000 5.8900 -5.4000
v  6.9177 0.3000 -5.4000
v  7.2000 0.3000 5.4000
v  6.9177 0.3000 5.4000
v  6.9177 5.8900 -5.4000
v  6.9177 5.8900 5.4000
v  7.2000 5.8900 5.4000
v  -6.9177 0.3000 -5.4000
v  -6.9177 0.3000 5.4000
v  -7.2000 0.3000 5.4000
v  -7.2000 5.8900 5.4000
v  -6.9177 5.8900 5.4000
v  -6.9177 5.8900 -5.4000
v  -7.2000 0.0000 -5.4000
v  7.2000 0.0000 -5.4000
v  7.2000 0.0000 5.4000
v  -7.2000 0.0000 5.4000
v  -7.2000 0.3000 5.1278
v  7.2000 0.3000 5.1278
v  -7.2000 5.8900 5.1278
v  7.2000 5.8900 5.1278
# 28 vertices

vn 0.0000 -1.0000 -0.0000
vn 0.0000 1.0000 -0.0000
vn -1.0000 0.0000 -0.0000
vn -0.0000 0.0000 1.0000
vn 1.0000 0.0000 0.0000
vn 0.0000 0.0000 -1.0000
vn 0.0000 -0.0000 -1.0000
# 7 vertex normals

vt 6.8553 5.2665 -1.8347
vt -5.8553 5.2665 -1.8347
vt -5.8553 5.0263 -1.8347
vt 6.8553 5.0263 -1.8347
vt -5.8553 5.2665 3.0995
vt -5.8553 5.0263 3.0995
vt 6.8553 5.0263 3.0995
vt 6.8553 5.2665 3.0995
vt -4.2665 -1.8347 -5.8553
vt -4.0263 -1.8347 -5.8553
vt -4.0263 3.0995 -5.8553
vt -4.2665 3.0995 -5.8553
vt -5.8553 -1.8347 5.0263
vt 6.8553 -1.8347 5.0263
vt 6.8553 3.0995 5.0263
vt -5.8553 3.0995 5.0263
vt 5.0263 -1.8347 6.8553
vt 5.2665 -1.8347 6.8553
vt 5.2665 3.0995 6.8553
vt 5.0263 3.0995 6.8553
vt -5.8553 -1.8347 5.2665
vt 6.8553 -1.8347 5.2665
vt 6.8553 3.0995 5.2665
vt -5.8553 3.0995 5.2665
vt -5.6062 5.2665 -1.8347
vt -5.8553 -4.2665 -1.8347
vt -5.6062 -4.2665 -1.8347
vt 6.6062 5.2665 3.0995
vt 6.6062 -4.2665 3.0995
vt 6.8553 -4.2665 3.0995
vt -4.2665 -1.8347 6.6062
vt 5.2665 -1.8347 6.6062
vt 5.2665 3.0995 6.6062
vt -4.2665 3.0995 6.6062
vt 6.6062 -1.8347 -4.2665
vt 6.8553 -1.8347 -4.2665
vt 6.8553 3.0995 -4.2665
vt 6.6062 3.0995 -4.2665
vt -4.2665 -1.8347 6.8553
vt -4.2665 3.0995 6.8553
vt -5.6062 -1.8347 5.2665
vt -5.6062 3.0995 5.2665
vt 6.6062 5.2665 -1.8347
vt 6.6062 -4.2665 -1.8347
vt 6.8553 -4.2665 -1.8347
vt -5.8553 -4.2665 3.0995
vt -5.6062 -4.2665 3.0995
vt -5.6062 5.2665 3.0995
vt 5.2665 -1.8347 -5.8553
vt 5.2665 3.0995 -5.8553
vt -5.8553 -1.8347 -4.2665
vt -5.6062 -1.8347 -4.2665
vt -5.6062 3.0995 -4.2665
vt -5.8553 3.0995 -4.2665
vt -4.2665 -1.8347 -5.6062
vt 5.2665 -1.8347 -5.6062
vt 5.2665 3.0995 -5.6062
vt -4.2665 3.0995 -5.6062
vt 6.6062 -1.8347 5.2665
vt 6.6062 3.0995 5.2665
vt 6.8553 5.2665 -2.0995
vt -5.8553 5.2665 -2.0995
vt -5.8553 -4.2665 -2.0995
vt 6.8553 -4.2665 -2.0995
vt -4.2665 -2.0995 -5.8553
vt 5.2665 -2.0995 -5.8553
vt -5.8553 -2.0995 -4.2665
vt 6.8553 -2.0995 -4.2665
vt -4.2665 -2.0995 6.8553
vt 5.2665 -2.0995 6.8553
vt -5.8553 -2.0995 5.2665
vt 6.8553 -2.0995 5.2665
vt 6.8553 -4.0262 -1.8347
vt -5.8553 -4.0262 -1.8347
vt -5.8553 -4.0262 3.0995
vt 6.8553 -4.0262 3.0995
vt 5.0262 -1.8347 -5.8553
vt 5.0262 3.0995 -5.8553
vt -4.0262 -1.8347 6.8553
vt -4.0262 3.0995 6.8553
vt -5.8553 -1.8347 -4.0262
vt 6.8553 -1.8347 -4.0262
vt 6.8553 3.0995 -4.0262
vt -5.8553 3.0995 -4.0262
# 84 texture coords

g Box002
usemtl 01___Default
s 2
f 1/1/1 2/2/1 3/3/1 
f 3/3/1 4/4/1 1/1/1 
s 4
f 5/5/2 6/6/2 7/7/2 
f 7/7/2 8/8/2 5/5/2 
s 8
f 1/9/3 4/10/3 6/11/3 
f 6/11/3 5/12/3 1/9/3 
s 16
f 4/13/4 3/14/4 7/15/4 
f 7/15/4 6/16/4 4/13/4 
s 32
f 3/17/5 2/18/5 8/19/5 
f 8/19/5 7/20/5 3/17/5 
s 64
f 2/21/6 1/22/6 5/23/6 
f 5/23/6 8/24/6 2/21/6 
s 2
f 9/25/1 2/2/1 10/26/1 
f 10/26/1 11/27/1 9/25/1 
s 4
f 12/28/2 13/29/2 14/30/2 
f 14/30/2 8/8/2 12/28/2 
s 8
f 9/31/3 11/32/3 13/33/3 
f 13/33/3 12/34/3 9/31/3 
s 16
f 11/35/4 10/36/4 14/37/4 
f 14/37/4 13/38/4 11/35/4 
s 32
f 10/39/5 2/18/5 8/19/5 
f 8/19/5 14/40/5 10/39/5 
s 64
f 2/21/7 9/41/6 12/42/7 
f 12/42/7 8/24/7 2/21/7 
s 2
f 1/1/1 15/43/1 16/44/1 
f 16/44/1 17/45/1 1/1/1 
s 4
f 5/5/2 18/46/2 19/47/2 
f 19/47/2 20/48/2 5/5/2 
s 8
f 1/9/3 17/49/3 18/50/3 
f 18/50/3 5/12/3 1/9/3 
s 16
f 17/51/4 16/52/4 19/53/4 
f 19/53/4 18/54/4 17/51/4 
s 32
f 16/55/5 15/56/5 20/57/5 
f 20/57/5 19/58/5 16/55/5 
s 64
f 15/59/7 1/22/6 5/23/7 
f 5/23/7 20/60/7 15/59/7 
s 2
f 21/61/1 22/62/1 23/63/1 
f 23/63/1 24/64/1 21/61/1 
s 4
f 1/2/2 17/26/2 10/45/2 
f 10/45/2 2/1/2 1/2/2 
s 8
f 21/65/3 24/66/3 17/49/3 
f 17/49/3 1/9/3 21/65/3 
s 16
f 24/67/4 23/68/4 10/36/4 
f 10/36/4 17/51/4 24/67/4 
s 32
f 23/69/5 22/70/5 2/18/5 
f 2/18/5 10/39/5 23/69/5 
s 64
f 22/71/6 21/72/6 1/22/6 
f 1/22/6 2/21/6 22/71/6 
s 2
f 25/73/1 26/74/1 10/26/1 
f 10/26/1 17/45/1 25/73/1 
s 4
f 27/75/2 18/46/2 14/30/2 
f 14/30/2 28/76/2 27/75/2 
s 8
f 25/77/3 17/49/3 18/50/3 
f 18/50/3 27/78/3 25/77/3 
s 16
f 17/51/4 10/36/4 14/37/4 
f 14/37/4 18/54/4 17/51/4 
s 32
f 10/39/5 26/79/5 28/80/5 
f 28/80/5 14/40/5 10/39/5 
s 64
f 26/81/6 25/82/6 27/83/6 
f 27/83/6 28/84/6 26/81/6 
# 60 faces

