# 3ds Max Wavefront OBJ Exporter v0.97b - (c)2007 guruware
# File Created: 10.04.2012 23:56:28

mtllib plane.mtl

#
# object Plane001
#

v -1.0000 0.0000 0.3333
v -1.0000 0.0000 1.0000
v -0.3333 0.0000 0.3333
v -0.3333 0.0000 1.0000
v 0.3333 0.0000 0.3333
v 0.3333 0.0000 1.0000
v 1.0000 0.0000 0.3333
v 1.0000 0.0000 1.0000
v -1.0000 0.0000 -0.3333
v -0.3333 0.0000 -0.3333
v 0.3333 0.0000 -0.3333
v 1.0000 0.0000 -0.3333
v -1.0000 0.0000 -1.0000
v -0.3333 0.0000 -1.0000
v 0.3333 0.0000 -1.0000
v 1.0000 0.0000 -1.0000
# 16 vertices

vn 0.0000 1.0000 -0.0000
# 1 vertex normals

vt 0.0005 0.3335 0.5000
vt 0.0005 0.0005 0.5000
vt 0.3335 0.3335 0.5000
vt 0.3335 0.0005 0.5000
vt 0.6665 0.3335 0.5000
vt 0.6665 0.0005 0.5000
vt 0.9995 0.3335 0.5000
vt 0.9995 0.0005 0.5000
vt 0.0005 0.6665 0.5000
vt 0.3335 0.6665 0.5000
vt 0.6665 0.6665 0.5000
vt 0.9995 0.6665 0.5000
vt 0.0005 0.9995 0.5000
vt 0.3335 0.9995 0.5000
vt 0.6665 0.9995 0.5000
vt 0.9995 0.9995 0.5000
# 16 texture coords

g Plane001
usemtl 01___Default
s 1
f 1/1/1 2/2/1 3/3/1 
f 4/4/1 3/3/1 2/2/1 
f 3/3/1 4/4/1 5/5/1 
f 6/6/1 5/5/1 4/4/1 
f 5/5/1 6/6/1 7/7/1 
f 8/8/1 7/7/1 6/6/1 
f 9/9/1 1/1/1 10/10/1 
f 3/3/1 10/10/1 1/1/1 
f 10/10/1 3/3/1 11/11/1 
f 5/5/1 11/11/1 3/3/1 
f 11/11/1 5/5/1 12/12/1 
f 7/7/1 12/12/1 5/5/1 
f 13/13/1 9/9/1 14/14/1 
f 10/10/1 14/14/1 9/9/1 
f 14/14/1 10/10/1 15/15/1 
f 11/11/1 15/15/1 10/10/1 
f 15/15/1 11/11/1 16/16/1 
f 12/12/1 16/16/1 11/11/1 
# 18 faces

